<svg xmlns="http://www.w3.org/2000/svg" width="512" height="512" viewBox="0 0 512 512">
  <defs>
    <radialGradient id="bg" cx="50%" cy="32%" r="80%">
      <stop offset="0%" stop-color="#128a63"/>
      <stop offset="55%" stop-color="#0b6e4f"/>
      <stop offset="100%" stop-color="#075138"/>
    </radialGradient>
  </defs>
  <rect width="512" height="512" rx="112" fill="url(#bg)"/>
  <circle cx="256" cy="256" r="150" fill="#ffffff"/>
  <g fill="#0c2a20">
    <polygon points="256,196 292,222 278,264 234,264 220,222"/>
    <polygon points="256,150 286,172 274,196 238,196 226,172"/>
    <polygon points="190,210 214,228 206,256 178,250 174,222"/>
    <polygon points="322,210 298,228 306,256 334,250 338,222"/>
    <polygon points="226,300 256,322 286,300 274,266 238,266"/>
    <polygon points="196,300 176,278 160,300 172,330 200,330"/>
    <polygon points="316,300 336,278 352,300 340,330 312,330"/>
  </g>
  <g stroke="#0c2a20" stroke-width="7" fill="none" opacity="0.85">
    <line x1="256" y1="196" x2="256" y2="150"/>
    <line x1="220" y1="222" x2="190" y2="210"/>
    <line x1="292" y1="222" x2="322" y2="210"/>
    <line x1="234" y1="264" x2="226" y2="300"/>
    <line x1="278" y1="264" x2="286" y2="300"/>
  </g>
</svg>
